<svg width="145" height="39" viewBox="0 0 145 39" fill="none" xmlns="http://www.w3.org/2000/svg">
<path d="M28.5351 10.2798C29.1827 10.2804 29.8241 10.1533 30.4225 9.9059C31.021 9.6585 31.5648 9.29562 32.023 8.83799C32.4812 8.38035 32.8448 7.83693 33.0929 7.23877C33.341 6.6406 33.4689 5.99942 33.4691 5.35183C33.4689 4.70424 33.341 4.06306 33.0929 3.46489C32.8448 2.86673 32.4812 2.3233 32.023 1.86567C31.5648 1.40804 31.021 1.04516 30.4225 0.797764C29.8241 0.550368 29.1827 0.423304 28.5351 0.42383C27.8876 0.423436 27.2464 0.550597 26.648 0.798051C26.0497 1.04551 25.5059 1.40841 25.0479 1.86603C24.5898 2.32365 24.2263 2.86702 23.9783 3.46512C23.7302 4.06322 23.6024 4.70433 23.6021 5.35183C23.6024 5.99933 23.7302 6.64044 23.9783 7.23854C24.2263 7.83664 24.5898 8.38001 25.0479 8.83763C25.5059 9.29525 26.0497 9.65815 26.648 9.90561C27.2464 10.1531 27.8876 10.2802 28.5351 10.2798ZM5.51213 10.2798C6.15963 10.2802 6.80086 10.1531 7.39921 9.90561C7.99756 9.65815 8.54131 9.29525 8.99939 8.83763C9.45748 8.38001 9.82093 7.83664 10.069 7.23854C10.3171 6.64044 10.4449 5.99933 10.4451 5.35183C10.4449 4.70433 10.3171 4.06322 10.069 3.46512C9.82093 2.86702 9.45748 2.32365 8.99939 1.86603C8.54131 1.40841 7.99756 1.04551 7.39921 0.798051C6.80086 0.550597 6.15963 0.423436 5.51213 0.42383C4.86454 0.423304 4.2232 0.550368 3.62473 0.797764C3.02626 1.04516 2.4824 1.40804 2.02421 1.86567C1.56602 2.3233 1.20248 2.86673 0.954355 3.46489C0.706232 4.06306 0.578387 4.70424 0.578125 5.35183C0.578387 5.99942 0.706232 6.6406 0.954355 7.23877C1.20248 7.83693 1.56602 8.38035 2.02421 8.83799C2.4824 9.29562 3.02626 9.6585 3.62473 9.9059C4.2232 10.1533 4.86454 10.2804 5.51213 10.2798ZM73.4451 1.62783C74.2051 1.62783 74.8291 1.84483 75.3171 2.27883C75.8051 2.71283 76.0491 3.28283 76.0491 3.98883V28.3238C76.0491 29.0568 75.8191 29.6398 75.3571 30.0738C74.8971 30.5078 74.2861 30.7248 73.5271 30.7248C72.7671 30.7248 72.1571 30.5078 71.6951 30.0748C71.2341 29.6398 71.0031 29.0568 71.0031 28.3248V27.3068C70.4061 28.4188 69.5381 29.2868 68.3981 29.9108C67.2861 30.5348 66.0111 30.8468 64.5731 30.8468C62.8631 30.8468 61.3311 30.4128 59.9751 29.5448C58.6451 28.6768 57.6011 27.4558 56.8411 25.8818C56.1081 24.2818 55.7421 22.4508 55.7421 20.3888C55.7421 18.3268 56.1081 16.5228 56.8411 14.9758C57.6011 13.4298 58.6451 12.2358 59.9751 11.3948C61.3041 10.5538 62.8371 10.1328 64.5731 10.1328C66.0111 10.1328 67.2861 10.4318 68.3991 11.0288C69.4836 11.5986 70.3754 12.4764 70.9621 13.5518V3.90683C70.9621 3.22883 71.1791 2.68583 71.6131 2.27883C72.0751 1.84483 72.6851 1.62783 73.4451 1.62783ZM65.9161 26.8998C67.5441 26.8998 68.7921 26.3438 69.6601 25.2308C70.5551 24.1188 71.0031 22.5308 71.0031 20.4698C71.0031 18.4078 70.5551 16.8338 69.6601 15.7498C68.7921 14.6368 67.5581 14.0798 65.9571 14.0798C64.3291 14.0798 63.0671 14.6228 62.1721 15.7088C61.2771 16.7938 60.8291 18.3538 60.8291 20.3888C60.8291 22.4508 61.2771 24.0508 62.1721 25.1908C63.0671 26.3308 64.3151 26.8998 65.9161 26.8998ZM90.3571 30.8468C88.3231 30.8468 86.5321 30.4268 84.9861 29.5858C83.4661 28.7448 82.2861 27.5378 81.4451 25.9638C80.6041 24.3898 80.1831 22.5588 80.1831 20.4698C80.1831 18.3808 80.6031 16.5628 81.4451 15.0168C82.2861 13.4428 83.4661 12.2358 84.9851 11.3948C86.5321 10.5538 88.3231 10.1328 90.3571 10.1328C92.3921 10.1328 94.1691 10.5528 95.6881 11.3948C97.2112 12.2115 98.4471 13.4757 99.2291 15.0168C100.07 16.5628 100.491 18.3808 100.491 20.4698C100.491 22.5598 100.07 24.3898 99.2291 25.9638C98.4471 27.505 97.2112 28.7692 95.6881 29.5858C94.1691 30.4258 92.3921 30.8468 90.3581 30.8468H90.3571ZM90.3171 26.8998C91.9721 26.8998 93.2331 26.3568 94.1011 25.2718C94.9701 24.1868 95.4041 22.5858 95.4041 20.4698C95.4041 18.3808 94.9701 16.7938 94.1011 15.7088C93.2331 14.5958 91.9851 14.0398 90.3571 14.0398C88.7301 14.0398 87.4671 14.5958 86.5731 15.7088C85.7051 16.7938 85.2701 18.3808 85.2701 20.4698C85.2701 22.5858 85.7041 24.1868 86.5731 25.2718C87.4411 26.3568 88.6891 26.8998 90.3171 26.8998ZM121.538 10.2148C122.298 10.2148 122.908 10.4318 123.369 10.8648C123.831 11.2998 124.061 11.8828 124.061 12.6148V28.6898C124.061 31.8098 123.193 34.1698 121.457 35.7718C119.72 37.3718 117.157 38.1718 113.765 38.1718C110.808 38.1718 108.339 37.6168 106.359 36.5038C105.355 35.9068 104.853 35.1878 104.853 34.3468C104.853 33.7498 104.989 33.2758 105.26 32.9228C105.558 32.5698 105.938 32.3928 106.399 32.3928C106.644 32.3928 106.942 32.4478 107.295 32.5568C107.647 32.6918 108.014 32.8418 108.393 33.0038C109.243 33.3654 110.113 33.6779 110.998 33.9398C111.785 34.1568 112.68 34.2658 113.684 34.2658C117.238 34.2658 119.015 32.5298 119.015 29.0558V26.4518C118.418 27.5648 117.55 28.4318 116.411 29.0568C115.271 29.6538 113.969 29.9518 112.504 29.9518C110.767 29.9518 109.221 29.5448 107.864 28.7318C106.535 27.8898 105.491 26.7238 104.731 25.2318C103.971 23.7388 103.591 22.0168 103.591 20.0628C103.591 18.1098 103.958 16.3868 104.69 14.8948C105.45 13.3748 106.508 12.2088 107.864 11.3948C109.221 10.5538 110.767 10.1328 112.504 10.1328C113.969 10.1328 115.271 10.4448 116.411 11.0688C117.521 11.637 118.43 12.5319 119.015 13.6328V12.5748C119.015 11.8698 119.246 11.2998 119.707 10.8648C120.168 10.4318 120.779 10.2148 121.538 10.2148ZM113.847 26.0048C115.475 26.0048 116.736 25.4748 117.631 24.4178C118.554 23.3588 119.015 21.9078 119.015 20.0628C119.015 18.1908 118.554 16.7258 117.631 15.6678C116.736 14.6098 115.475 14.0808 113.847 14.0808C112.246 14.0808 110.984 14.6098 110.062 15.6678C109.14 16.7258 108.678 18.1908 108.678 20.0628C108.678 21.9078 109.14 23.3588 110.062 24.4178C110.984 25.4758 112.246 26.0048 113.847 26.0048ZM136.533 30.8468C133.576 30.8468 131.189 30.2638 129.371 29.0968C128.503 28.5818 128.069 27.8488 128.069 26.8998C128.069 26.3568 128.218 25.9228 128.516 25.5978C128.815 25.2448 129.181 25.0678 129.615 25.0678C130.076 25.0678 130.714 25.2858 131.528 25.7198C132.396 26.1268 133.183 26.4388 133.888 26.6558C134.621 26.8728 135.543 26.9808 136.655 26.9808C137.795 26.9808 138.677 26.7908 139.301 26.4108C139.952 26.0308 140.277 25.5028 140.277 24.8238C140.277 24.3638 140.142 23.9968 139.87 23.7258C139.626 23.4538 139.165 23.2098 138.487 22.9928C137.835 22.7488 136.832 22.4778 135.475 22.1788C133.061 21.6908 131.324 20.9988 130.266 20.1038C129.235 19.2088 128.72 17.9738 128.72 16.4008C128.72 15.2068 129.072 14.1348 129.778 13.1848C130.483 12.2088 131.446 11.4628 132.667 10.9468C133.915 10.4048 135.326 10.1328 136.899 10.1328C138.039 10.1328 139.138 10.2828 140.196 10.5808C141.205 10.8311 142.168 11.2431 143.045 11.8008C143.913 12.3438 144.347 13.0628 144.347 13.9588C144.347 14.5008 144.198 14.9628 143.899 15.3418C143.601 15.6948 143.234 15.8718 142.8 15.8718C142.502 15.8718 142.203 15.8168 141.905 15.7088C141.548 15.5271 141.195 15.337 140.847 15.1388C140.06 14.7318 139.382 14.4338 138.812 14.2438C138.242 14.0268 137.537 13.9178 136.696 13.9178C135.692 13.9178 134.892 14.1218 134.295 14.5278C133.725 14.9348 133.44 15.4918 133.44 16.1968C133.44 16.8748 133.739 17.3908 134.336 17.7428C134.933 18.0958 136.086 18.4488 137.795 18.8018C139.613 19.1818 141.037 19.6148 142.068 20.1038C143.099 20.5918 143.831 21.2028 144.265 21.9348C144.727 22.6678 144.957 23.6038 144.957 24.7428C144.957 26.5878 144.184 28.0668 142.638 29.1788C141.118 30.2908 139.083 30.8468 136.533 30.8468Z" fill="#9C9C9C"/>
</svg>
