<svg width="200" height="49" viewBox="0 0 200 49" fill="none" xmlns="http://www.w3.org/2000/svg">
<g clip-path="url(#clip0_12_162)">
<path d="M54.3807 44.0139C51.0607 44.0139 48.5157 43.4459 46.7447 42.3099C45.0047 41.1419 44.1357 39.4368 44.1357 37.1959C44.1357 36.0599 44.5157 35.1279 45.2737 34.4019C46.0647 33.6449 47.0767 33.2659 48.3097 33.2659C49.0367 33.2978 49.5897 33.4859 49.9697 33.8339C50.3497 34.1499 50.5397 34.4499 50.5397 34.7339C50.5397 34.7649 50.3807 34.8759 50.0647 35.0648C49.7487 35.2549 49.4647 35.5389 49.2107 35.9169C48.9577 36.2969 48.8307 36.8169 48.8307 37.4799C48.8307 38.9639 49.2747 40.1159 50.1597 40.9369C51.0767 41.7259 52.4837 42.1199 54.3807 42.1199C55.6777 42.1199 56.8157 41.8679 57.7967 41.3629C58.7767 40.8578 59.5197 40.1949 60.0257 39.3739C60.5627 38.5219 60.8317 37.6379 60.8317 36.7219C60.8317 35.5859 60.4997 34.6078 59.8357 33.7868C59.1908 32.9552 58.3843 32.2627 57.4647 31.7509C56.5147 31.1828 55.2187 30.5349 53.5747 29.8089C51.6777 28.9569 50.1447 28.1839 48.9747 27.4889C47.799 26.79 46.781 25.855 45.9847 24.7429C45.1637 23.5749 44.7527 22.1389 44.7527 20.4339C44.7527 17.6879 45.6847 15.6359 47.5507 14.2789C49.4487 12.9209 51.9307 12.2429 54.9977 12.2429C57.4007 12.2429 59.4877 12.7479 61.2587 13.7579C63.0617 14.7679 63.9627 16.2519 63.9627 18.2079C63.9627 19.3449 63.5667 20.2919 62.7767 21.0499C62.0177 21.7759 61.0217 22.1389 59.7887 22.1389C59.0607 22.1069 58.5077 21.9329 58.1287 21.6179C57.7487 21.2709 57.5587 20.9549 57.5587 20.6709C57.5587 20.6389 57.7647 20.5289 58.1757 20.3389C58.6187 20.1499 58.9977 19.8659 59.3137 19.4869C59.6617 19.1079 59.8357 18.5869 59.8357 17.9249C59.8357 16.7569 59.3777 15.8409 58.4607 15.1779C57.5747 14.5149 56.4367 14.1839 55.0447 14.1839C53.1167 14.1839 51.6457 14.6419 50.6347 15.5569C49.6537 16.4409 49.1637 17.5459 49.1637 18.8719C49.1637 19.9759 49.4637 20.9079 50.0647 21.6649C50.6647 22.3909 51.6297 23.1169 52.9577 23.8429C54.1093 24.4483 55.2799 25.017 56.4677 25.5479C58.4917 26.4629 60.0887 27.2999 61.2587 28.0579C62.4634 28.8186 63.484 29.8375 64.2467 31.0409C65.0687 32.2709 65.4807 33.8029 65.4807 35.6329C65.4807 37.2119 64.9747 38.6479 63.9627 39.9429C62.9827 41.2049 61.6377 42.1988 59.9307 42.9249C58.2547 43.6509 56.4047 44.0149 54.3807 44.0149V44.0139ZM78.3937 43.6359C76.2437 43.6359 74.5357 42.9879 73.2707 41.6939C72.0057 40.3999 71.3737 38.6949 71.3737 36.5799V27.8199C71.3737 26.9999 71.3417 26.3999 71.2787 26.0209C71.2477 25.6429 71.0577 25.3109 70.7087 25.0269C70.3617 24.7429 69.7767 24.6009 68.9547 24.6009C68.5747 24.6009 68.2907 24.5539 68.1007 24.4589C67.9107 24.3329 67.8167 24.0639 67.8167 23.6539C67.8167 23.4639 67.8797 23.2909 68.0067 23.1339C68.1327 22.9439 68.3227 22.8339 68.5757 22.8019C70.5677 22.5169 72.2757 22.1069 73.6977 21.5699C74.1407 21.4129 74.5037 21.3179 74.7887 21.2859H74.9307C75.4367 21.2859 75.6907 21.5859 75.6907 22.1859V36.5329C75.6907 37.9849 76.1487 39.1059 77.0657 39.8949C77.9546 40.6422 79.0825 41.0454 80.2437 41.0308C81.7297 41.0308 82.9937 40.6679 84.0377 39.9419C85.0817 39.2159 85.7777 38.4899 86.1247 37.7639V27.8209C86.1247 26.9999 86.0937 26.4009 86.0307 26.0209C85.9987 25.6429 85.8087 25.3109 85.4607 25.0269C85.1127 24.7429 84.5277 24.6009 83.7057 24.6009C83.3257 24.6009 83.0417 24.5539 82.8527 24.4589C82.6627 24.3329 82.5677 24.0639 82.5677 23.6539C82.5677 23.4639 82.6307 23.2909 82.7577 23.1339C82.8837 22.9439 83.0737 22.8339 83.3267 22.8019C85.3187 22.5169 87.0267 22.1069 88.4497 21.5699C88.8917 21.4129 89.2557 21.3179 89.5397 21.2859H89.6827C90.1887 21.2859 90.4417 21.5859 90.4417 22.1859V38.5699C90.4417 40.4329 91.6907 41.3638 94.1887 41.3638C94.7257 41.3638 94.9947 41.6639 94.9947 42.2639C94.9947 42.7049 94.7257 42.9739 94.1887 43.0679L86.5517 43.5889C86.3307 43.5889 86.2037 43.5099 86.1717 43.3529C86.1417 43.2259 86.1247 42.9899 86.1247 42.6429V39.9899H86.0307C85.3048 40.6717 84.5612 41.3346 83.8007 41.9779C83.2317 42.4199 82.4887 42.7989 81.5707 43.1149C80.6857 43.4619 79.6267 43.6348 78.3937 43.6348V43.6359ZM97.5897 43.2099C97.4792 43.2094 97.3703 43.1834 97.2714 43.134C97.1726 43.0845 97.0864 43.013 97.0197 42.9249C96.8937 42.7359 96.8297 42.5149 96.8297 42.2629C96.8617 41.8529 96.9567 41.6149 97.1147 41.5529C97.2737 41.4579 97.5577 41.4099 97.9687 41.4099C98.7907 41.4099 99.3757 41.2679 99.7237 40.9839C100.072 40.6999 100.262 40.3679 100.293 39.9899C100.357 39.6099 100.388 39.0108 100.388 38.1898V27.3469C100.388 26.5269 100.357 25.9269 100.293 25.5469C100.262 25.1689 100.072 24.8369 99.7237 24.5539C99.3757 24.2699 98.7907 24.1269 97.9687 24.1269C97.5887 24.1269 97.3047 24.0799 97.1157 23.9849C96.9257 23.8589 96.8307 23.5909 96.8307 23.1799C96.8307 22.9909 96.8937 22.8169 97.0207 22.6599C97.1467 22.4699 97.3367 22.3598 97.5897 22.3279C99.6447 22.0119 101.337 21.6019 102.665 21.0969C103.203 20.9389 103.566 20.8439 103.756 20.8129H103.898C104.404 20.8129 104.657 21.1129 104.657 21.7129V24.6479H104.799C105.906 23.5429 107.029 22.6749 108.167 22.0439C109.306 21.3809 110.333 21.0499 111.25 21.0499C112.294 21.0499 113.116 21.4439 113.717 22.2329C114.349 22.9909 114.665 23.8749 114.665 24.8849C114.665 25.7689 114.397 26.5579 113.859 27.2519C113.321 27.9469 112.578 28.2939 111.63 28.2939C111.217 28.3011 110.809 28.2034 110.444 28.0099C110.128 27.8199 109.954 27.6629 109.922 27.5369C109.954 27.4739 110.112 27.2839 110.396 26.9679C110.681 26.6209 110.823 26.2269 110.823 25.7849C110.823 25.2159 110.665 24.7589 110.349 24.4119C110.064 24.0639 109.669 23.8909 109.163 23.8909C108.626 23.8909 107.946 24.1589 107.124 24.6959C106.301 25.2008 105.495 25.8479 104.705 26.6369V38.1898C104.705 39.0108 104.736 39.6099 104.799 39.9899C104.863 40.3679 105.068 40.6999 105.416 40.9839C105.764 41.2679 106.349 41.4099 107.171 41.4099H107.456C107.709 41.4099 107.898 41.4578 108.025 41.5518C108.151 41.6469 108.23 41.8839 108.262 42.2619C108.262 42.5149 108.199 42.7359 108.072 42.9249C107.946 43.1148 107.756 43.2099 107.503 43.2099C105.844 43.1197 104.184 43.072 102.523 43.0669C101.1 43.0669 99.4557 43.1148 97.5897 43.2089V43.2099ZM171.257 43.6359C169.107 43.6359 167.194 43.1298 165.518 42.1199C163.842 41.0788 162.53 39.7209 161.581 38.0479C160.676 36.3925 160.204 34.5361 160.206 32.6499C160.206 30.2829 160.759 28.2309 161.866 26.4949C162.973 24.7269 164.38 23.3849 166.087 22.4699C167.795 21.5229 169.518 21.0499 171.257 21.0499C173.408 21.0499 175.321 21.5699 176.997 22.6119C178.641 23.5886 179.986 24.9968 180.886 26.6839C181.822 28.311 182.313 30.1564 182.309 32.0339C182.309 34.4019 181.74 36.4699 180.602 38.2379C179.495 39.9739 178.088 41.3149 176.38 42.2619C174.673 43.1779 172.965 43.6359 171.257 43.6359ZM171.257 41.8839C173.408 41.8839 174.973 40.9679 175.953 39.1369C176.965 37.3069 177.471 34.9389 177.471 32.0349C177.471 29.3199 176.949 27.1109 175.906 25.4049C174.894 23.6699 173.344 22.8019 171.257 22.8019C169.076 22.8019 167.495 23.7019 166.514 25.5009C165.534 27.2999 165.044 29.6509 165.044 32.5559C165.044 35.2699 165.55 37.5119 166.562 39.2789C167.574 41.0159 169.139 41.8839 171.257 41.8839ZM194.261 43.8719C192.711 43.8719 191.383 43.3039 190.276 42.1679C189.17 41.0308 188.616 39.4059 188.616 37.2909V23.3699L185.865 23.4649C185.773 23.4656 185.682 23.4445 185.599 23.4033C185.517 23.3621 185.445 23.302 185.391 23.2279C185.266 23.0466 185.2 22.8317 185.201 22.6119C185.201 22.3279 185.249 22.0919 185.343 21.9019C185.47 21.6809 185.644 21.5549 185.865 21.5229C186.972 21.3029 187.826 20.9549 188.427 20.4819C189.059 19.9759 189.518 19.4399 189.802 18.8719C190.087 18.2719 190.435 17.3719 190.846 16.1719C191.004 15.7619 191.352 15.5569 191.889 15.5569C192.11 15.5569 192.332 15.6199 192.553 15.7469C192.774 15.8409 192.885 15.9989 192.885 16.2199L192.553 21.6179L198.103 21.2859H198.198C198.609 21.2859 198.814 21.5859 198.814 22.1859C198.814 22.5329 198.751 22.8649 198.624 23.1799C198.53 23.4649 198.403 23.6069 198.245 23.6069L192.933 23.4649V37.8589C192.933 38.9009 193.138 39.7689 193.549 40.4629C193.992 41.1579 194.703 41.5049 195.684 41.5049C196.664 41.5049 197.534 41.3309 198.292 40.9839C198.704 40.8259 198.956 40.7469 199.051 40.7469C199.273 40.7469 199.447 40.8419 199.573 41.0308C199.7 41.1889 199.826 41.4109 199.953 41.6939C199.986 41.7682 200.002 41.8493 200 41.9309C200 42.0569 199.905 42.1988 199.715 42.3568C198.798 42.9568 197.929 43.3519 197.107 43.5409C196.316 43.7609 195.367 43.8719 194.261 43.8719ZM117.597 42.9249C117.723 43.1148 117.913 43.2089 118.166 43.2089C119.809 43.1187 121.453 43.0713 123.099 43.0669C125.218 43.0669 127.194 43.1148 129.028 43.2089C129.132 43.2112 129.235 43.1862 129.327 43.1364C129.418 43.0866 129.495 43.0136 129.55 42.9249C129.676 42.7349 129.739 42.5149 129.739 42.2619C129.708 41.8839 129.629 41.6469 129.502 41.5518C129.407 41.4578 129.218 41.4099 128.933 41.4099H128.648C127.605 41.4099 126.862 41.3309 126.419 41.1729C125.976 41.0159 125.676 40.7309 125.518 40.3209C125.36 39.8789 125.281 39.1689 125.281 38.1909V23.4629H130.309C130.419 23.4623 130.528 23.4364 130.626 23.3872C130.725 23.3379 130.811 23.2667 130.878 23.1789C131.036 22.9899 131.115 22.7689 131.115 22.5159C131.083 22.1379 130.988 21.9009 130.83 21.8059C130.704 21.6799 130.498 21.6159 130.214 21.6159H125.281V18.7759C125.281 17.2608 125.344 15.9349 125.47 14.7979C125.588 13.6564 125.961 12.556 126.561 11.5779C127.162 10.5999 128.095 10.1109 129.36 10.1109C129.505 10.1109 129.646 10.1189 129.782 10.1359C129.764 9.60538 129.799 9.07445 129.886 8.55085C129.821 8.54907 129.756 8.54807 129.692 8.54785C126.909 8.61085 124.743 9.66785 123.194 11.7209C121.676 13.7409 120.917 16.3769 120.917 19.6279V21.6169H118.071C117.66 21.6169 117.375 21.6639 117.217 21.7589C117.059 21.8219 116.964 22.0749 116.933 22.5159C116.933 22.7689 116.996 22.9899 117.122 23.1789C117.281 23.3689 117.486 23.4639 117.739 23.4639H120.917V38.1898C120.917 39.0429 120.885 39.6579 120.822 40.0368C120.791 40.3839 120.601 40.6999 120.253 40.9839C119.905 41.2679 119.32 41.4099 118.498 41.4099C118.087 41.4099 117.802 41.4578 117.644 41.5518C117.518 41.6148 117.439 41.8519 117.407 42.2619C117.407 42.5149 117.47 42.7359 117.597 42.9249Z" fill="#9C9C9C"/>
<path fill-rule="evenodd" clip-rule="evenodd" d="M142.952 9.86549C142.951 10.5569 142.814 11.2414 142.549 11.8799C142.284 12.5185 141.895 13.0985 141.406 13.5869C140.917 14.0754 140.336 14.4626 139.697 14.7266C139.058 14.9906 138.373 15.1261 137.682 15.1255C136.285 15.1265 134.946 14.573 133.958 13.5866C132.969 12.6003 132.413 11.2618 132.412 9.86549C132.412 9.17395 132.549 8.48928 132.814 7.85058C133.079 7.21188 133.468 6.63166 133.957 6.14303C134.446 5.65441 135.027 5.26696 135.666 5.00281C136.305 4.73865 136.99 4.60296 137.682 4.60349C138.373 4.60283 139.058 4.73843 139.697 5.00254C140.337 5.26665 140.917 5.65409 141.407 6.14274C141.896 6.63139 142.285 7.21167 142.55 7.85042C142.815 8.48918 142.951 9.17391 142.952 9.86549ZM137.682 12.4955C138.027 12.4959 138.37 12.4282 138.689 12.2962C139.009 12.1642 139.299 11.9706 139.544 11.7264C139.789 11.4821 139.983 11.1921 140.116 10.8728C140.248 10.5535 140.316 10.2112 140.317 9.86549C140.317 9.51968 140.248 9.17729 140.116 8.85788C139.983 8.53847 139.789 8.2483 139.544 8.00397C139.3 7.75963 139.009 7.56591 138.69 7.43388C138.37 7.30185 138.028 7.23409 137.682 7.23449C136.984 7.23422 136.314 7.51106 135.82 8.0042C135.326 8.49733 135.048 9.16643 135.047 9.86449C135.048 10.5627 135.326 11.2321 135.82 11.7254C136.314 12.2188 136.984 12.4958 137.682 12.4955ZM135.372 17.4145V42.7845C135.372 43.0675 135.452 43.2885 135.61 43.4465C135.768 43.6365 135.989 43.7305 136.274 43.7305C136.558 43.7305 136.795 43.6045 136.985 43.3525C137.175 43.1315 137.349 42.7995 137.507 42.3575C137.665 41.9155 137.807 41.5685 137.934 41.3155H138.171C140.226 42.8625 142.661 43.6355 145.475 43.6355C147.373 43.6355 149.159 43.1305 150.835 42.1205C152.511 41.1105 153.839 39.7375 154.82 38.0005C155.831 36.2335 156.337 34.2925 156.337 32.1775C156.337 30.0305 155.895 28.1215 155.009 26.4475C154.156 24.7435 152.97 23.4175 151.452 22.4705C149.934 21.5235 148.242 21.0505 146.377 21.0505C145.238 21.0505 144.084 21.2865 142.914 21.7605C141.776 22.2025 140.748 22.8805 139.831 23.7965H139.689V17.5005C138.269 17.869 136.775 17.8393 135.372 17.4145ZM149.697 39.4215C148.527 41.1585 146.977 42.0265 145.049 42.0265C144.037 42.0265 143.136 41.8055 142.345 41.3635C141.586 40.9215 140.969 40.4005 140.495 39.8005C140.052 39.1695 139.784 38.6005 139.689 38.0965V25.5965C141.048 24.1435 142.724 23.4175 144.717 23.4175C146.962 23.4175 148.653 24.3015 149.792 26.0695C150.93 27.8055 151.499 29.9045 151.499 32.3665C151.499 35.3025 150.899 37.6545 149.697 39.4215ZM12.6997 0.367487C13.0352 0.128459 13.4368 0 13.8487 0C14.2606 0 14.6623 0.128459 14.9977 0.367487C23.5577 6.47149 27.4377 13.7885 27.6827 24.2875C27.7957 29.3005 27.3127 33.8905 25.8417 37.8555C24.3317 41.8235 21.6487 45.4885 17.6987 48.5845C17.4528 48.7756 17.1652 48.906 16.8594 48.9651C16.5536 49.0241 16.2382 49.0102 15.9387 48.9245C14.7287 48.5775 14.5227 47.1455 13.8487 46.2535C13.1747 47.1455 12.9707 48.5765 11.7587 48.9235C11.4594 49.0091 11.1442 49.0229 10.8386 48.9638C10.5329 48.9047 10.2456 48.7744 9.99973 48.5835C6.04973 45.4885 3.36573 41.8235 1.85673 37.8555C0.386726 33.8905 -0.0972739 29.3005 0.0157261 24.2875C0.259726 13.7885 4.13973 6.47049 12.6997 0.367487ZM17.1257 44.0625C19.5977 41.7925 21.0877 39.3175 22.1397 36.4705C23.4647 32.9905 23.8467 29.1445 23.7317 24.3795C23.5417 16.1925 21.6217 10.8655 15.8087 5.91949V20.3875C18.0817 20.9715 19.1017 23.1975 19.1017 25.6475C19.1017 28.0995 18.0817 30.3255 15.8087 30.9095V42.7465C15.8087 42.7465 16.8647 43.7195 17.1257 44.0625ZM10.5377 44.0625C8.06573 41.7925 6.61073 39.3175 5.55773 36.4705C4.23373 32.9905 3.85173 29.1445 3.96773 24.3795C4.15773 16.2095 6.06673 10.8595 11.8557 5.91949V20.3875C9.58273 20.9715 8.56173 23.1975 8.56173 25.6475C8.56173 28.0995 9.58173 30.3255 11.8557 30.9095V42.7465C11.8557 42.7465 10.7897 43.7315 10.5377 44.0625ZM13.8317 23.0175C13.1336 23.017 12.4638 23.2937 11.9697 23.7869C11.4756 24.2801 11.1975 24.9493 11.1967 25.6475C11.1967 27.1015 12.3767 28.2785 13.8317 28.2785C14.5299 28.279 15.1996 28.0023 15.6938 27.5091C16.1879 27.0159 16.4659 26.3466 16.4667 25.6485C16.4667 24.1955 15.2867 23.0185 13.8317 23.0185V23.0175Z" fill="#9C9C9C"/>
</g>
<defs>
<clipPath id="clip0_12_162">
<rect width="200" height="49" fill="white"/>
</clipPath>
</defs>
</svg>
