<svg width="208" height="40" viewBox="0 0 208 40" fill="none" xmlns="http://www.w3.org/2000/svg">
<path fill-rule="evenodd" clip-rule="evenodd" d="M13.9352 36.1231C13.8024 36.1219 13.6715 36.0903 13.5528 36.0306C13.4341 35.971 13.3306 35.885 13.2502 35.7791C13.0221 35.4759 12.868 35.1235 12.8002 34.7501C12.6918 34.2748 12.6084 33.7942 12.5502 33.3101C12.4811 32.6868 12.4457 32.0603 12.4442 31.4331C12.4237 30.0552 12.4283 28.6769 12.4582 27.2991C12.4762 26.4531 12.4842 25.7931 12.4842 25.3171V9.56514C12.4842 8.78914 12.4892 8.19914 12.4982 7.79414C12.5072 7.38914 12.5382 6.93114 12.5892 6.42014C12.6192 6.04014 12.6852 5.66414 12.7882 5.29714C12.8882 5.01414 13.0212 4.74414 13.1832 4.49114C13.3332 4.22614 13.5512 4.00714 13.8162 3.85714C14.1242 3.70314 14.4412 3.56714 14.7652 3.44714C15.1827 3.29195 15.6155 3.18134 16.0562 3.11714C16.6305 3.03329 17.2067 2.96261 17.7842 2.90514V1.45014L17.3342 1.00014H1.41223L0.990234 1.45014V2.69214C3.66223 2.85114 5.15623 3.60914 5.47223 4.96514C5.65623 6.11014 5.74423 7.26814 5.73623 8.42714V32.5541C5.78044 33.8074 5.72728 35.0621 5.57723 36.3071C5.50423 36.5011 5.39723 36.6791 5.26123 36.8351C5.0576 37.0787 4.84235 37.3123 4.61623 37.5351C4.43708 37.7082 4.26558 37.8891 4.10223 38.0771V39.0021C17.6892 39.0021 26.0992 39.0901 29.3322 39.2671L30.4672 35.4351L29.7552 34.9321C24.5052 35.5931 19.2252 35.9901 13.9362 36.1221H13.9352V36.1231ZM39.1912 25.0771C39.1397 25.0916 39.0867 25.1003 39.0332 25.1031C38.7702 25.1031 38.6382 25.0071 38.6382 24.8131C38.6392 23.9371 38.7052 23.0621 38.8362 22.1961C38.9842 21.2521 39.2312 20.3261 39.5742 19.4351C39.9048 18.5317 40.358 17.678 40.9212 16.8981C41.5182 16.1047 42.2933 15.4629 43.1841 15.0244C44.075 14.586 45.0564 14.3632 46.0492 14.3741C46.7657 14.3344 47.4802 14.4816 48.1225 14.8014C48.7649 15.1212 49.3131 15.6025 49.7132 16.1981C50.5444 17.43 50.9772 18.8873 50.9532 20.3731C50.9497 20.6455 50.8632 20.9103 50.7052 21.1322C50.5473 21.3541 50.3254 21.5226 50.0692 21.6151C48.6256 22.1969 47.1514 22.7 45.6532 23.1221C43.5462 23.7422 41.446 24.3855 39.3532 25.0521C39.2985 25.0544 39.2441 25.0628 39.1912 25.0771ZM54.8512 33.3221C51.6862 35.2421 48.9532 36.2021 46.6532 36.2021C45.0951 36.236 43.5651 35.7833 42.2762 34.9071C41.0772 34.1025 40.1238 32.9823 39.5212 31.6701C38.9279 30.3543 38.6267 28.9255 38.6382 27.4821C50.1332 23.9061 55.9332 22.1171 56.0382 22.1171C56.4947 22.0237 56.9026 21.7698 57.188 21.4014C57.4733 21.033 57.617 20.5745 57.5932 20.1091C57.6245 18.8118 57.3204 17.5284 56.7102 16.3831C56.1531 15.3588 55.3285 14.5048 54.3242 13.9121C53.3111 13.3174 52.2131 12.8808 51.0682 12.6171C49.8264 12.336 48.5564 12.1984 47.2832 12.2071C44.9992 12.1717 42.7342 12.627 40.6412 13.5421C38.7958 14.3393 37.1654 15.5619 35.8832 17.1101C34.6744 18.6072 33.7416 20.3073 33.1282 22.1311C32.4922 24.0077 32.1712 25.9767 32.1782 27.9581C32.1782 32.0281 33.2782 35.0761 35.4742 37.1021C37.4602 38.9521 40.2642 39.8761 43.8842 39.8761C45.9598 39.8549 48.0029 39.3578 49.8562 38.4231C52.0881 37.3115 54.2261 36.0206 56.2492 34.5631L55.6722 33.5351L54.8522 33.3221H54.8512ZM90.3602 5.45714C89.6538 3.61192 88.2665 2.10796 86.4842 1.25514C84.2764 0.326286 81.8916 -0.106568 79.4982 -0.0128623C77.7516 -0.0228811 76.0109 0.190175 74.3182 0.621138C72.7437 1.02204 71.2406 1.66396 69.8622 2.52414C68.5121 3.37528 67.4079 4.5646 66.6592 5.97414C65.8465 7.51591 65.4381 9.23861 65.4722 10.9811C65.4713 12.2285 65.7744 13.4573 66.3552 14.5611C66.91 15.6537 67.6608 16.6349 68.5702 17.4561C69.5482 18.3188 70.5876 19.1092 71.6802 19.8211C72.7769 20.5518 73.9126 21.2221 75.0822 21.8291C76.1818 22.3943 77.2633 22.994 78.3252 23.6271C79.2052 24.1251 80.0312 24.7141 80.7902 25.3841C82.7402 27.1991 83.7162 28.9251 83.7162 30.5641C83.7127 31.4347 83.5307 32.2954 83.1815 33.0929C82.8324 33.8904 82.3235 34.6079 81.6862 35.2011C81.0537 35.8523 80.2949 36.3675 79.4563 36.7151C78.6177 37.0628 77.717 37.2357 76.8092 37.2231C75.7479 37.2536 74.6936 37.0408 73.7271 36.6011C72.7606 36.1614 71.9076 35.5063 71.2332 34.6861C69.8339 33.0838 69.0698 31.0244 69.0852 28.8971L68.0582 28.5271L62.8122 34.4201C64.0111 36.1553 65.6367 37.5525 67.5322 38.4771C69.4596 39.4227 71.5805 39.9071 73.7272 39.8921C75.6861 39.8823 77.6323 39.5789 79.5012 38.9921C81.3807 38.4263 83.173 37.6035 84.8272 36.5471C86.3999 35.5429 87.7354 34.2087 88.7412 32.6371C89.7271 31.1427 90.2541 29.3925 90.2572 27.6021C90.2651 26.6414 90.0956 25.6874 89.7572 24.7881C89.4442 23.9531 89.0088 23.1692 88.4652 22.4621C87.8254 21.6772 87.085 20.9799 86.2632 20.3881C85.3653 19.711 84.4276 19.0882 83.4552 18.5231C82.2914 17.86 81.1138 17.2212 79.9232 16.6071C79.0931 16.2047 78.2754 15.7772 77.4712 15.3251C76.7107 14.8807 75.9707 14.4022 75.2532 13.8911C74.5177 13.3869 73.8455 12.796 73.2512 12.1311C72.729 11.5106 72.3023 10.8156 71.9852 10.0691C71.6333 9.26529 71.4538 8.39662 71.4582 7.51914C71.442 6.80149 71.57 6.08788 71.8345 5.42056C72.099 4.75324 72.4947 4.14578 72.9982 3.63414C73.5304 3.10229 74.1672 2.68677 74.8683 2.41393C75.5694 2.14109 76.3196 2.01687 77.0712 2.04914C78.0023 2.00893 78.9307 2.17519 79.79 2.536C80.6492 2.89682 81.418 3.44325 82.0412 4.13614C83.29 5.54945 84.0765 7.31092 84.2952 9.18414L85.2182 9.47414L90.3602 5.45714ZM115.998 15.5921C115.527 14.7673 114.845 14.0831 114.021 13.6101C113.206 13.1444 112.327 12.8016 111.411 12.5931C110.429 12.3753 109.425 12.269 108.419 12.2761C106.5 12.2491 104.592 12.5761 102.79 13.2411C101.245 13.8025 99.828 14.6698 98.6252 15.7911C97.5075 16.874 96.5805 18.1378 95.8832 19.5291C95.1666 20.9288 94.639 22.4175 94.3142 23.9561C93.9939 25.5123 93.8351 27.0974 93.8402 28.6861C93.8342 30.0361 94.0252 31.3801 94.4062 32.6741C94.7762 33.9271 95.3512 35.1101 96.1062 36.1761C96.9024 37.2757 97.9702 38.1498 99.2052 38.7131C100.623 39.3611 102.168 39.6821 103.726 39.6511C108.665 39.6511 113.305 37.4751 117.646 33.1241L117.119 32.3571L116.46 32.1991C113.244 34.6831 110.273 35.9251 107.549 35.9251C106.529 35.9416 105.521 35.7103 104.61 35.2511C103.785 34.8412 103.066 34.2444 102.511 33.5081C101.961 32.7513 101.513 31.9247 101.179 31.0501C100.833 30.1768 100.581 29.269 100.428 28.3421C100.288 27.4681 100.218 26.5841 100.217 25.6991C100.223 24.5741 100.32 23.4521 100.507 22.3431C100.714 21.1081 101.023 19.8931 101.43 18.7091C101.8 17.552 102.442 16.5006 103.302 15.6431C103.681 15.2594 104.133 14.9554 104.631 14.7489C105.129 14.5425 105.663 14.4379 106.202 14.4411C106.923 14.4014 107.64 14.5635 108.273 14.909C108.906 15.2545 109.431 15.7699 109.787 16.3971C110.602 17.8658 111.003 19.5283 110.947 21.2071L111.87 21.5771L116.853 18.6181C116.812 17.5559 116.519 16.5187 115.998 15.5921ZM125.661 23.4541C125.795 22.4161 126.029 21.3941 126.36 20.4021C126.663 19.4371 127.093 18.5181 127.638 17.6671C128.162 16.8788 128.862 16.2229 129.682 15.7511C130.567 15.2404 131.574 14.9801 132.595 14.9981C133.703 14.9699 134.796 15.2586 135.745 15.8301C136.627 16.3795 137.336 17.1676 137.788 18.1031C138.265 19.0701 138.61 20.0961 138.815 21.1551C139.032 22.2951 139.139 23.4551 139.132 24.6171C139.132 25.6741 139.123 26.5551 139.105 27.2591C139.077 28.1072 139.016 28.9539 138.921 29.7971C138.843 30.6271 138.698 31.4481 138.486 32.2541C138.279 32.9641 138.01 33.6541 137.682 34.3161C137.38 34.9714 136.945 35.5563 136.403 36.0331C135.844 36.4896 135.211 36.8471 134.531 37.0901C133.707 37.385 132.836 37.5283 131.961 37.5131C130.997 37.5249 130.053 37.2385 129.258 36.6931C128.483 36.1737 127.838 35.482 127.374 34.6721C126.887 33.8005 126.506 32.8735 126.24 31.9111C125.96 30.9641 125.757 29.9959 125.633 29.0161C125.531 28.1699 125.478 27.3185 125.475 26.4661C125.475 25.4592 125.537 24.4533 125.661 23.4541ZM122.392 37.1171C124.307 38.8611 127.348 39.7331 131.514 39.7331C133.054 39.7431 134.59 39.5661 136.088 39.2041C137.497 38.8538 138.84 38.2784 140.066 37.5001C141.298 36.7228 142.376 35.7236 143.243 34.5531C144.192 33.226 144.898 31.7405 145.326 30.1661C145.858 28.2569 146.116 26.2818 146.091 24.3001C146.142 22.7046 145.846 21.117 145.222 19.6475C144.598 18.178 143.662 16.8618 142.479 15.7901C140.281 13.8181 137.091 12.8311 132.909 12.8311C128.726 12.8311 125.281 14.1261 122.574 16.7161C121.245 17.9722 120.197 19.4949 119.497 21.1844C118.797 22.8739 118.462 24.6922 118.514 26.5201C118.514 31.2421 119.805 34.7741 122.389 37.1171H122.392ZM163.65 16.1871C165.056 16.1871 166.058 16.4691 166.656 17.0331C167.213 17.7131 167.565 18.5391 167.67 19.4131C167.891 20.4431 168.028 21.4911 168.079 22.5441C168.114 23.4691 168.132 24.6631 168.132 26.1251C168.131 28.0235 168.118 29.9219 168.093 31.8201C168.084 32.3921 168.088 33.0661 168.105 33.8421C168.11 34.4201 168.145 34.9981 168.211 35.5721C168.264 35.9521 168.334 36.3661 168.422 36.8141C168.483 37.1901 168.608 37.5511 168.791 37.8841C168.949 38.1491 169.143 38.3901 169.369 38.5991C170.16 39.3168 171.201 39.696 172.268 39.6551C173.587 39.6551 175.098 38.9851 176.803 37.6471C178.226 36.4638 179.581 35.2018 180.863 33.8671L180.257 32.9671H179.624C178.593 33.7944 177.332 34.2836 176.013 34.3681C175.734 34.3842 175.454 34.3432 175.191 34.2478C174.928 34.1524 174.687 34.0045 174.483 33.8131C174.301 33.6693 174.145 33.4955 174.021 33.2991C173.876 32.9534 173.783 32.5881 173.745 32.2151C173.644 31.4575 173.6 30.6934 173.613 29.9291C173.613 29.3481 173.644 28.4091 173.705 27.1151C173.754 26.1952 173.785 25.2743 173.798 24.3531V22.7671C173.815 21.0581 173.811 19.8741 173.785 19.2121C173.732 18.309 173.631 17.4093 173.481 16.5171C173.416 15.6759 173.134 14.8659 172.664 14.1651C172.2 13.6617 171.645 13.2496 171.029 12.9501C170.192 12.5452 169.269 12.35 168.34 12.3811C165.247 12.3811 161.661 13.6501 157.584 16.1871L156.951 15.9491C156.917 14.9774 156.601 14.0366 156.042 13.2411C155.523 12.5611 154.631 12.2231 153.366 12.2231C152.608 12.2327 151.856 12.3619 151.138 12.6061C150.303 12.8861 149.506 13.2681 148.764 13.7421C147.964 14.2451 147.27 14.7121 146.681 15.1431C146.092 15.5741 145.411 16.0981 144.638 16.7151L145.613 18.0101C145.793 17.8942 145.973 17.7798 146.154 17.6671C146.461 17.4731 146.729 17.3151 146.958 17.1911C147.186 17.0681 147.459 16.9231 147.775 16.7551C148.058 16.6011 148.354 16.4721 148.659 16.3691C148.892 16.2891 149.136 16.2441 149.383 16.2371C149.688 16.2301 149.989 16.3071 150.253 16.4621C150.521 16.6391 150.723 16.8991 150.831 17.2021C150.963 17.5221 151.077 17.8471 151.173 18.1791C151.281 18.6261 151.343 19.0821 151.358 19.5411C151.394 20.1411 151.415 20.6251 151.422 20.9941C151.43 21.3631 151.434 21.9181 151.435 22.6591V23.1091C151.435 24.8351 151.303 30.1201 151.04 38.9641L151.699 39.3341L157.631 37.6161C157.455 36.8591 157.323 34.4721 157.235 30.4561C157.148 26.5277 157.105 22.5985 157.107 18.6691C160.165 17.0131 162.344 16.1851 163.645 16.1851L163.65 16.1871ZM189.223 25.1971C189.172 25.2125 189.119 25.2219 189.065 25.2251C188.802 25.2251 188.67 25.1281 188.669 24.9351C188.67 24.0581 188.736 23.1841 188.868 22.3181C189.016 21.3741 189.263 20.4481 189.605 19.5561C189.936 18.6531 190.388 17.7991 190.95 17.0191C191.547 16.2255 192.322 15.5835 193.213 15.145C194.104 14.7065 195.085 14.4839 196.078 14.4951C196.795 14.4553 197.509 14.6025 198.152 14.9223C198.794 15.2421 199.342 15.7234 199.742 16.3191C200.574 17.5509 201.006 19.0084 200.981 20.4941C200.977 20.7663 200.891 21.0308 200.733 21.2526C200.575 21.4744 200.354 21.6431 200.098 21.7361C198.655 22.3176 197.181 22.8207 195.683 23.2431C193.576 23.863 191.475 24.5064 189.382 25.1731C189.329 25.176 189.276 25.1844 189.224 25.1981H189.223V25.1971ZM204.883 33.4431C201.718 35.3641 198.985 36.3241 196.684 36.3231C195.126 36.3567 193.596 35.9045 192.307 35.0291C191.109 34.2243 190.156 33.1041 189.553 31.7921C188.959 30.4757 188.658 29.0463 188.669 27.6021C200.164 24.0271 205.964 22.2391 206.07 22.2391C206.527 22.1453 206.935 21.8911 207.22 21.5226C207.505 21.1541 207.649 20.6956 207.625 20.2301C207.656 18.9328 207.352 17.6495 206.742 16.5041C206.185 15.4798 205.36 14.6258 204.356 14.0331C203.343 13.4387 202.245 13.002 201.1 12.7381C199.858 12.4569 198.588 12.3193 197.314 12.3281C195.031 12.2929 192.767 12.7482 190.674 13.6631C188.829 14.4602 187.198 15.6829 185.916 17.2311C184.707 18.7279 183.774 20.4282 183.161 22.2521C182.525 24.1287 182.204 26.0977 182.212 28.0791C182.212 32.1491 183.31 35.1961 185.507 37.2231C187.493 39.0731 190.296 39.9971 193.917 39.9971C195.993 39.9758 198.036 39.4787 199.889 38.5441C202.121 37.4323 204.259 36.1418 206.282 34.6851L205.705 33.6561L204.883 33.4431Z" fill="#9C9C9C"/>
</svg>
