<svg width="196" height="34" viewBox="0 0 196 34" fill="none" xmlns="http://www.w3.org/2000/svg">
<path d="M21.644 32.9553C20.4706 32.9869 19.3082 32.7224 18.264 32.1863C17.2254 31.6541 16.3395 30.8659 15.69 29.8963C13.6449 31.7748 10.9953 32.8599 8.22 32.9553C3.233 32.9553 0.53 29.4913 1.443 24.5253C2.137 20.7913 5.242 17.0493 6.11 14.0453C4.43 13.0373 1.936 12.3353 0.767 14.3953L0 13.9363C0.612 11.6783 2.091 10.1763 4.228 10.1763C6.365 10.1763 7.945 11.4263 9.982 10.2753H11.607C10.74 14.7733 8.548 18.3713 7.379 24.6693C6.667 28.5293 7.991 30.2833 10.229 30.2833C11.8822 30.08 13.403 29.276 14.502 28.0243C13.6095 25.828 13.1596 23.477 13.178 21.1063C13.178 15.6363 15.726 9.87033 20 9.87033C22.192 9.87033 23.817 11.3723 23.817 14.9353C23.817 18.4973 21.626 24.0123 18.831 27.4753C18.982 28.3003 19.421 29.0473 20.071 29.5883C20.721 30.1283 21.542 30.4283 22.393 30.4363C26.466 30.4363 29.315 24.4163 29.315 18.8483C29.315 13.2803 26.868 13.5313 27.078 11.6513C27.0969 11.4164 27.162 11.1875 27.2696 10.9778C27.3772 10.7681 27.5252 10.5817 27.705 10.4293C28.069 10.1193 28.543 9.96433 29.023 9.99633C30.293 9.99633 31.963 11.5793 31.963 18.0033C31.963 26.1893 27.543 32.9553 21.643 32.9553H21.644ZM20.722 12.6953C19.452 12.6953 18.228 17.3103 18.073 22.0783C18.0137 23.0979 18.0321 24.1205 18.128 25.1373C20.0432 22.0185 21.2119 18.4993 21.543 14.8543C21.534 13.2343 21.233 12.6943 20.721 12.6943L20.722 12.6953ZM40.329 32.7483C39.7964 32.8026 39.2584 32.7408 38.752 32.5673C38.2475 32.3949 37.7868 32.1144 37.402 31.7453C37.0197 31.3783 36.7233 30.9313 36.534 30.4363C36.3451 29.9434 36.2686 29.4146 36.31 28.8883C36.31 26.6843 39.215 15.6993 39.215 13.8913C39.215 13.0373 39.014 12.5333 38.247 12.5333C37.3912 12.6707 36.5942 13.0551 35.954 13.6393V12.0833C37.2835 10.8773 38.9997 10.1851 40.794 10.1313C41.3299 10.0837 41.8698 10.1519 42.377 10.3313C42.883 10.5113 43.343 10.7963 43.726 11.1693C44.108 11.5413 44.404 11.9913 44.592 12.4893C44.779 12.9853 44.855 13.5163 44.812 14.0443C44.812 16.2483 41.909 27.1883 41.909 28.9873C41.909 29.8423 42.109 30.3463 42.877 30.3463C43.7212 30.206 44.5126 29.8424 45.169 29.2933V30.7953C43.8445 32.0096 42.1253 32.7033 40.329 32.7483ZM43.89 0.999333C44.288 0.987333 44.684 1.05933 45.051 1.21333C45.417 1.36733 45.746 1.59733 46.012 1.88833C46.279 2.17711 46.4787 2.52152 46.5967 2.89676C46.7146 3.27199 46.7478 3.66871 46.694 4.05833C46.5958 4.89024 46.1972 5.65764 45.573 6.21633C44.9435 6.78013 44.1329 7.09977 43.288 7.11733C42.8905 7.12992 42.4949 7.05694 42.128 6.90333C41.7623 6.75056 41.4341 6.52026 41.166 6.22833C40.899 5.93955 40.6993 5.59514 40.5813 5.21991C40.4634 4.84468 40.4302 4.44796 40.484 4.05833C40.5823 3.22646 40.9809 2.45908 41.605 1.90033C42.2347 1.33697 43.0453 1.0177 43.89 1.00033V0.999333ZM55.196 28.0343C54.941 29.3923 55.096 30.3373 56.064 30.3373C56.9112 30.2069 57.7051 29.8422 58.356 29.2843L58.447 30.7953C57.1176 32.0018 55.4014 32.6943 53.607 32.7483C50.447 32.7483 49.224 30.4903 49.69 27.6833L52.795 10.2753C53.827 4.46333 53.47 3.69833 50.31 3.69833L50.511 2.29533L60.036 1.05333L55.196 28.0333V28.0343ZM81.982 27.9883C81.726 29.3473 81.826 30.3463 82.849 30.3463C83.6981 30.1877 84.4896 29.8056 85.142 29.2393V30.7953C83.8212 32.0153 82.0996 32.71 80.302 32.7483C79.3927 32.8143 78.4912 32.5414 77.771 31.9823C77.0565 31.4288 76.5772 30.6259 76.429 29.7343C75.6625 30.7328 74.6786 31.5437 73.552 32.1053C72.4197 32.6707 71.1745 32.9735 69.909 32.9913C63.854 32.9913 61.306 27.7283 62.475 21.4033C63.644 15.0793 69.095 9.91533 75.26 9.91533C76.7175 9.8848 78.1591 10.2218 79.452 10.8953L79.607 10.0953C80.813 3.90533 80.256 3.69833 77.096 3.69833L77.251 2.29533L86.821 1.05333L81.981 27.9893L81.982 27.9883ZM75.415 12.1823C71.899 12.1823 69.562 16.2933 68.639 21.3583C67.671 26.6753 68.283 30.3553 71.589 30.3553C73.826 30.3553 76.374 27.6553 77.141 23.5353L79.023 13.1003C77.9348 12.4509 76.6813 12.1319 75.415 12.1823ZM98.073 32.9993C90.995 32.9993 89.059 27.9793 89.927 23.1663L92.237 10.2753C93.306 4.45533 92.95 3.65333 89.79 3.65333L89.99 2.25033L99.543 1.05333L97.607 11.9843C99.1008 10.7082 100.986 9.98136 102.95 9.92433C109.114 9.92433 112.009 15.0883 110.895 21.4123C109.781 27.7373 104.11 33.0003 98.073 33.0003V32.9993ZM101.379 12.3083C100.352 12.3284 99.3576 12.6689 98.534 13.2823C97.7166 13.8909 97.1139 14.7437 96.813 15.7173L95.388 23.8143C94.52 28.6273 96.256 30.5883 98.448 30.5883C101.653 30.5883 103.644 27.0803 104.712 21.3133C105.662 16.1493 104.795 12.3353 101.37 12.3353L101.379 12.3083ZM120.548 24.3273C120.548 28.1873 122.429 30.2473 126.027 30.2473C127.854 30.2473 130.511 28.9973 132.192 27.3413L132.904 28.9423C131.693 30.2054 130.242 31.2144 128.637 31.9103C127.025 32.6092 125.291 32.9823 123.534 33.0083C118.192 33.0083 114.575 29.0953 114.575 23.7783C114.575 15.9063 121.196 9.93333 127.562 9.93333C131.434 9.93333 133.616 12.0383 133.616 14.4943C133.571 18.3083 129.9 22.5913 120.548 24.3273ZM127.114 12.2363C124.21 12.2363 121.416 16.4013 120.648 22.3663C126.502 20.9623 128.995 17.0493 129.05 14.5393C129.041 13.1363 128.374 12.2363 127.105 12.2363H127.114ZM154.393 32.7483C153.484 32.8142 152.582 32.5413 151.862 31.9823C151.148 31.4287 150.669 30.6258 150.521 29.7343C149.783 30.7324 148.822 31.5448 147.715 32.1073C146.603 32.6733 145.376 32.9755 144.128 32.9903C138.174 32.9903 135.626 27.7283 136.822 21.4033C138.018 15.0793 143.379 9.92333 149.562 9.92333C150.872 9.9167 152.17 10.1742 153.379 10.6803H159.187L156.073 27.9883C155.817 29.3473 155.918 30.3463 156.941 30.3463C157.79 30.1874 158.581 29.8053 159.233 29.2393V30.7953C157.912 32.0152 156.191 32.7099 154.393 32.7483ZM149.708 12.1823C146.292 12.1823 143.9 16.2933 142.986 21.3583C142.018 26.6753 142.685 30.3553 145.726 30.3553C148.064 30.3553 150.566 27.5483 151.279 23.5353L153.16 13.1003C152.133 12.4509 150.931 12.1306 149.717 12.1823H149.708ZM177.005 15.8433C175.626 15.8433 175.269 14.7913 174.868 13.6843C174.731 13.1248 174.402 12.6309 173.939 12.2883C173.472 11.9429 172.9 11.7689 172.32 11.7953C171.566 11.7554 170.824 11.9955 170.237 12.4693C169.654 12.9385 169.27 13.6101 169.16 14.3503C169.005 15.7093 170.027 16.8603 171.963 18.5153L174.557 20.6203C175.521 21.3381 176.269 22.3066 176.721 23.4203C177.17 24.5303 177.303 25.7403 177.105 26.9183C176.447 30.6783 173.288 32.9903 169.059 32.9903C163.963 32.9903 160.712 30.0303 161.068 28.0243C161.151 27.4973 161.421 27.0143 161.831 26.6663C162.241 26.3163 162.764 26.1223 163.306 26.1173C164.63 26.1173 165.132 27.1163 165.543 28.4203C165.807 29.1703 166.314 29.8123 166.986 30.2483C167.66 30.6847 168.459 30.8894 169.26 30.8313C170.052 30.8689 170.829 30.6133 171.444 30.1133C172.053 29.6177 172.454 28.9108 172.566 28.1333C172.767 26.3333 171.653 25.2273 169.562 23.3643L167.014 21.1603C166.118 20.487 165.418 19.5871 164.986 18.5533C164.556 17.5247 164.411 16.3993 164.566 15.2953C165.023 12.8843 167.306 9.89733 172.557 9.89733C176.63 9.89733 179.178 12.1553 178.95 13.9633C178.924 14.462 178.71 14.9322 178.35 15.2783C177.99 15.6263 177.509 15.8283 177.005 15.8433ZM195.644 12.6953H190.703L188.311 26.0273C187.799 28.7893 188.21 30.0403 189.735 30.0403C190.548 30.0403 191.826 29.5903 193.653 27.7373L193.753 29.6893C192.923 30.657 191.895 31.4346 190.738 31.9693C189.576 32.5071 188.312 32.7907 187.032 32.8013C183.571 32.8013 181.836 30.3913 182.658 25.9283L185.05 12.6953H181.187L181.489 10.6353H185.388L186.411 4.67033H192.11L191.041 10.6343H195.982L195.644 12.6943V12.6953Z" fill="#9C9C9C"/>
</svg>
