<svg width="152" height="39" viewBox="0 0 152 39" fill="none" xmlns="http://www.w3.org/2000/svg">
<path fill-rule="evenodd" clip-rule="evenodd" d="M23.0243 16.8496H25.7413C28.5493 16.8496 30.0663 20.1416 28.2373 22.2746L25.5773 25.3746C25.8653 27.2132 26.8363 28.8755 28.2963 30.0296C29.7576 31.1843 31.6003 31.7463 33.4573 31.6036C35.3143 31.4609 37.0495 30.624 38.3173 29.2596C39.584 27.8957 40.2894 26.104 40.2923 24.2426C40.292 23.9188 40.3556 23.5981 40.4795 23.2989C40.6033 22.9997 40.785 22.7279 41.0141 22.499C41.2431 22.2701 41.5151 22.0887 41.8144 21.9651C42.1137 21.8414 42.4344 21.7781 42.7583 21.7786C43.412 21.7789 44.0388 22.0385 44.5013 22.5004C44.9639 22.9624 45.2242 23.5889 45.2253 24.2426C45.2251 26.8285 44.4106 29.3487 42.8973 31.4456C41.7642 33.0124 40.2791 34.2912 38.5615 35.1791C36.8438 36.0669 34.9417 36.539 33.0082 36.5573C31.0748 36.5756 29.1641 36.1396 27.4299 35.2844C25.6958 34.4292 24.1867 33.1787 23.0243 31.6336C21.8618 33.1787 20.3527 34.4292 18.6186 35.2844C16.8845 36.1396 14.9738 36.5756 13.0403 36.5573C11.1068 36.539 9.20471 36.0669 7.48707 35.1791C5.76943 34.2912 4.28429 33.0124 3.15127 31.4456C1.63762 29.3488 0.822741 26.8286 0.822266 24.2426C0.822003 23.9187 0.885655 23.5979 1.00958 23.2987C1.1335 22.9994 1.31525 22.7275 1.54443 22.4986C1.7736 22.2698 2.04569 22.0883 2.3451 21.9648C2.64451 21.8412 2.96536 21.778 3.28927 21.7786C3.94296 21.7789 4.56984 22.0385 5.03235 22.5004C5.49486 22.9624 5.75521 23.5889 5.75627 24.2426C5.7535 26.107 6.45579 27.9034 7.72227 29.2716C8.6679 30.293 9.8823 31.0272 11.2262 31.3898C12.57 31.7525 13.9889 31.729 15.32 31.3221C16.6511 30.9151 17.8406 30.1412 18.7519 29.089C19.6632 28.0369 20.2594 26.7492 20.4723 25.3736L17.8103 22.2736C15.9823 20.1416 17.4983 16.8506 20.3103 16.8506H23.0243V16.8496Z" fill="#9C9C9C"/>
<path d="M34.5351 10.2798C35.1827 10.2804 35.8241 10.1533 36.4225 9.9059C37.021 9.6585 37.5649 9.29562 38.023 8.83799C38.4812 8.38035 38.8448 7.83693 39.0929 7.23877C39.341 6.6406 39.4689 5.99942 39.4691 5.35183C39.4689 4.70424 39.341 4.06306 39.0929 3.46489C38.8448 2.86673 38.4812 2.3233 38.023 1.86567C37.5649 1.40804 37.021 1.04516 36.4225 0.797764C35.8241 0.550368 35.1827 0.423304 34.5351 0.42383C33.8876 0.423436 33.2464 0.550597 32.648 0.798051C32.0497 1.04551 31.5059 1.40841 31.0479 1.86603C30.5898 2.32365 30.2263 2.86702 29.9783 3.46512C29.7302 4.06322 29.6024 4.70433 29.6021 5.35183C29.6024 5.99933 29.7302 6.64044 29.9783 7.23854C30.2263 7.83664 30.5898 8.38001 31.0479 8.83763C31.5059 9.29525 32.0497 9.65815 32.648 9.90561C33.2464 10.1531 33.8876 10.2802 34.5351 10.2798V10.2798ZM11.5121 10.2798C12.1596 10.2802 12.8009 10.1531 13.3992 9.90561C13.9976 9.65815 14.5413 9.29525 14.9994 8.83763C15.4575 8.38001 15.8209 7.83664 16.069 7.23854C16.3171 6.64044 16.4449 5.99933 16.4451 5.35183C16.4449 4.70433 16.3171 4.06322 16.069 3.46512C15.8209 2.86702 15.4575 2.32365 14.9994 1.86603C14.5413 1.40841 13.9976 1.04551 13.3992 0.798051C12.8009 0.550597 12.1596 0.423436 11.5121 0.42383C10.8645 0.423304 10.2232 0.550368 9.62473 0.797764C9.02626 1.04516 8.4824 1.40804 8.02421 1.86567C7.56602 2.3233 7.20248 2.86673 6.95436 3.46489C6.70623 4.06306 6.57839 4.70424 6.57812 5.35183C6.57839 5.99942 6.70623 6.6406 6.95436 7.23877C7.20248 7.83693 7.56602 8.38035 8.02421 8.83799C8.4824 9.29562 9.02626 9.6585 9.62473 9.9059C10.2232 10.1533 10.8645 10.2804 11.5121 10.2798V10.2798ZM79.4451 1.62783C80.2051 1.62783 80.8291 1.84483 81.3171 2.27883C81.8051 2.71283 82.0491 3.28283 82.0491 3.98883V28.3238C82.0491 29.0568 81.8191 29.6398 81.3571 30.0738C80.8971 30.5078 80.2861 30.7248 79.5271 30.7248C78.7671 30.7248 78.1571 30.5078 77.6951 30.0748C77.2341 29.6398 77.0031 29.0568 77.0031 28.3248V27.3068C76.4061 28.4188 75.5381 29.2868 74.3981 29.9108C73.2861 30.5348 72.0111 30.8468 70.5731 30.8468C68.8631 30.8468 67.3311 30.4128 65.9751 29.5448C64.6451 28.6768 63.6011 27.4558 62.8411 25.8818C62.1081 24.2818 61.7421 22.4508 61.7421 20.3888C61.7421 18.3268 62.1081 16.5228 62.8411 14.9758C63.6011 13.4298 64.6451 12.2358 65.9751 11.3948C67.3041 10.5538 68.8371 10.1328 70.5731 10.1328C72.0111 10.1328 73.2861 10.4318 74.3991 11.0288C75.4836 11.5986 76.3753 12.4764 76.9621 13.5518V3.90683C76.9621 3.22883 77.1791 2.68583 77.6131 2.27883C78.0751 1.84483 78.6851 1.62783 79.4451 1.62783ZM71.9161 26.8998C73.5441 26.8998 74.7921 26.3438 75.6601 25.2308C76.5551 24.1188 77.0031 22.5308 77.0031 20.4698C77.0031 18.4078 76.5551 16.8338 75.6601 15.7498C74.7921 14.6368 73.5581 14.0798 71.9571 14.0798C70.3291 14.0798 69.0671 14.6228 68.1721 15.7088C67.2771 16.7938 66.8291 18.3538 66.8291 20.3888C66.8291 22.4508 67.2771 24.0508 68.1721 25.1908C69.0671 26.3308 70.3151 26.8998 71.9161 26.8998ZM96.3571 30.8468C94.3231 30.8468 92.5321 30.4268 90.9861 29.5858C89.4661 28.7448 88.2861 27.5378 87.4451 25.9638C86.6041 24.3898 86.1831 22.5588 86.1831 20.4698C86.1831 18.3808 86.6031 16.5628 87.4451 15.0168C88.2861 13.4428 89.4661 12.2358 90.9851 11.3948C92.5321 10.5538 94.3231 10.1328 96.3571 10.1328C98.3921 10.1328 100.169 10.5528 101.688 11.3948C103.211 12.2115 104.447 13.4757 105.229 15.0168C106.07 16.5628 106.491 18.3808 106.491 20.4698C106.491 22.5598 106.07 24.3898 105.229 25.9638C104.447 27.505 103.211 28.7692 101.688 29.5858C100.169 30.4258 98.3921 30.8468 96.3581 30.8468H96.3571ZM96.3171 26.8998C97.9721 26.8998 99.2331 26.3568 100.101 25.2718C100.97 24.1868 101.404 22.5858 101.404 20.4698C101.404 18.3808 100.97 16.7938 100.101 15.7088C99.2331 14.5958 97.9851 14.0398 96.3571 14.0398C94.7301 14.0398 93.4671 14.5958 92.5731 15.7088C91.7051 16.7938 91.2701 18.3808 91.2701 20.4698C91.2701 22.5858 91.7041 24.1868 92.5731 25.2718C93.4411 26.3568 94.6891 26.8998 96.3171 26.8998ZM127.538 10.2148C128.298 10.2148 128.908 10.4318 129.369 10.8648C129.831 11.2998 130.061 11.8828 130.061 12.6148V28.6898C130.061 31.8098 129.193 34.1698 127.457 35.7718C125.72 37.3718 123.157 38.1718 119.765 38.1718C116.808 38.1718 114.339 37.6168 112.359 36.5038C111.355 35.9068 110.853 35.1878 110.853 34.3468C110.853 33.7498 110.989 33.2758 111.26 32.9228C111.558 32.5698 111.938 32.3928 112.399 32.3928C112.644 32.3928 112.942 32.4478 113.295 32.5568C113.647 32.6918 114.014 32.8418 114.393 33.0038C115.243 33.3654 116.113 33.6779 116.998 33.9398C117.785 34.1568 118.68 34.2658 119.684 34.2658C123.238 34.2658 125.015 32.5298 125.015 29.0558V26.4518C124.418 27.5648 123.55 28.4318 122.411 29.0568C121.271 29.6538 119.969 29.9518 118.504 29.9518C116.767 29.9518 115.221 29.5448 113.864 28.7318C112.535 27.8898 111.491 26.7238 110.731 25.2318C109.971 23.7388 109.591 22.0168 109.591 20.0628C109.591 18.1098 109.958 16.3868 110.69 14.8948C111.45 13.3748 112.508 12.2088 113.864 11.3948C115.221 10.5538 116.767 10.1328 118.504 10.1328C119.969 10.1328 121.271 10.4448 122.411 11.0688C123.521 11.637 124.43 12.5319 125.015 13.6328V12.5748C125.015 11.8698 125.246 11.2998 125.707 10.8648C126.168 10.4318 126.779 10.2148 127.538 10.2148V10.2148ZM119.847 26.0048C121.475 26.0048 122.736 25.4748 123.631 24.4178C124.554 23.3588 125.015 21.9078 125.015 20.0628C125.015 18.1908 124.554 16.7258 123.631 15.6678C122.736 14.6098 121.475 14.0808 119.847 14.0808C118.246 14.0808 116.984 14.6098 116.062 15.6678C115.14 16.7258 114.678 18.1908 114.678 20.0628C114.678 21.9078 115.14 23.3588 116.062 24.4178C116.984 25.4758 118.246 26.0048 119.847 26.0048ZM142.533 30.8468C139.576 30.8468 137.189 30.2638 135.371 29.0968C134.503 28.5818 134.069 27.8488 134.069 26.8998C134.069 26.3568 134.218 25.9228 134.516 25.5978C134.815 25.2448 135.181 25.0678 135.615 25.0678C136.076 25.0678 136.714 25.2858 137.528 25.7198C138.396 26.1268 139.183 26.4388 139.888 26.6558C140.621 26.8728 141.543 26.9808 142.655 26.9808C143.795 26.9808 144.677 26.7908 145.301 26.4108C145.952 26.0308 146.277 25.5028 146.277 24.8238C146.277 24.3638 146.142 23.9968 145.87 23.7258C145.626 23.4538 145.165 23.2098 144.487 22.9928C143.835 22.7488 142.832 22.4778 141.475 22.1788C139.061 21.6908 137.324 20.9988 136.266 20.1038C135.235 19.2088 134.72 17.9738 134.72 16.4008C134.72 15.2068 135.072 14.1348 135.778 13.1848C136.483 12.2088 137.446 11.4628 138.667 10.9468C139.915 10.4048 141.326 10.1328 142.899 10.1328C144.039 10.1328 145.138 10.2828 146.196 10.5808C147.205 10.8311 148.168 11.2431 149.045 11.8008C149.913 12.3438 150.347 13.0628 150.347 13.9588C150.347 14.5008 150.198 14.9628 149.899 15.3418C149.601 15.6948 149.234 15.8718 148.8 15.8718C148.502 15.8718 148.203 15.8168 147.905 15.7088C147.548 15.5271 147.195 15.337 146.847 15.1388C146.06 14.7318 145.382 14.4338 144.812 14.2438C144.242 14.0268 143.537 13.9178 142.696 13.9178C141.692 13.9178 140.892 14.1218 140.295 14.5278C139.725 14.9348 139.44 15.4918 139.44 16.1968C139.44 16.8748 139.739 17.3908 140.336 17.7428C140.933 18.0958 142.086 18.4488 143.795 18.8018C145.613 19.1818 147.037 19.6148 148.068 20.1038C149.099 20.5918 149.831 21.2028 150.265 21.9348C150.727 22.6678 150.957 23.6038 150.957 24.7428C150.957 26.5878 150.184 28.0668 148.638 29.1788C147.118 30.2908 145.083 30.8468 142.533 30.8468V30.8468Z" fill="#9C9C9C"/>
</svg>
