<svg width="18" height="18" viewBox="0 0 18 18" fill="none" xmlns="http://www.w3.org/2000/svg">
<path d="M9.00097 0.666992C4.41797 0.666992 0.667969 4.41699 0.667969 8.99999C0.667969 13.583 4.41797 17.333 9.00097 17.333C13.584 17.333 17.334 13.583 17.334 8.99999C17.334 4.41699 13.584 0.666992 9.00097 0.666992ZM11.959 12.167L8.55897 10.075C8.43655 10.0019 8.33529 9.89814 8.26516 9.77399C8.19502 9.64985 8.15842 9.50958 8.15897 9.36699V5.45799C8.16335 5.29206 8.23183 5.13428 8.35004 5.01775C8.46825 4.90122 8.62699 4.835 8.79297 4.83299C8.95832 4.8343 9.11654 4.90057 9.23347 5.0175C9.35039 5.13442 9.41666 5.29264 9.41797 5.45799V9.16599L12.618 11.091C12.918 11.275 13.018 11.666 12.834 11.967C12.7435 12.1084 12.6011 12.2087 12.4374 12.2461C12.2737 12.2835 12.1019 12.2551 11.959 12.167Z" fill="url(#paint0_linear_12_616)"/>
<defs>
<linearGradient id="paint0_linear_12_616" x1="9.00097" y1="0.666992" x2="9.00097" y2="17.333" gradientUnits="userSpaceOnUse">
<stop stop-color="#FFBF00"/>
<stop offset="1" stop-color="#F2A50C"/>
</linearGradient>
</defs>
</svg>
