<svg width="14" height="18" viewBox="0 0 14 18" fill="none" xmlns="http://www.w3.org/2000/svg">
<path d="M6.99903 0.666992C3.49903 0.666992 0.332031 3.34999 0.332031 7.49999C0.332031 10.15 2.37403 13.267 6.44903 16.858C6.60302 16.9909 6.79964 17.064 7.00303 17.064C7.20642 17.064 7.40304 16.9909 7.55703 16.858C11.624 13.267 13.666 10.15 13.666 7.49999C13.666 3.34999 10.499 0.666992 6.99903 0.666992ZM6.99903 8.99999C6.08203 8.99999 5.33203 8.24999 5.33203 7.33299C5.33203 6.41599 6.08203 5.66599 6.99903 5.66599C7.91603 5.66599 8.66603 6.41599 8.66603 7.33299C8.66603 8.24999 7.91603 8.99999 6.99903 8.99999Z" fill="url(#paint0_linear_12_573)"/>
<defs>
<linearGradient id="paint0_linear_12_573" x1="6.99903" y1="0.666992" x2="6.99903" y2="17.064" gradientUnits="userSpaceOnUse">
<stop stop-color="#FFBF00"/>
<stop offset="1" stop-color="#F2A50C"/>
</linearGradient>
</defs>
</svg>
