<svg width="16" height="16" viewBox="0 0 16 16" fill="none" xmlns="http://www.w3.org/2000/svg">
<path d="M14.0245 10.7168L11.9075 10.4748C11.6587 10.4457 11.4066 10.4733 11.17 10.5555C10.9334 10.6378 10.7185 10.7726 10.5415 10.9498L9.00751 12.4828C6.64221 11.2797 4.71963 9.35712 3.51651 6.99181L5.05751 5.44981C5.41651 5.09181 5.59151 4.59181 5.53251 4.08281L5.29151 1.98281C5.24415 1.57622 5.04893 1.20124 4.74301 0.929258C4.4371 0.657273 4.04185 0.507273 3.63251 0.507814H2.19151C1.24951 0.507814 0.466513 1.29181 0.524513 2.23281C0.966513 9.34981 6.65751 15.0328 13.7665 15.4748C14.7075 15.5328 15.4915 14.7498 15.4915 13.8078V12.3668C15.4936 11.9593 15.3449 11.5653 15.0741 11.2608C14.8033 10.9562 14.4295 10.7624 14.0245 10.7168Z" fill="url(#paint0_linear_12_577)"/>
<defs>
<linearGradient id="paint0_linear_12_577" x1="8.00651" y1="0.507812" x2="8.00651" y2="15.4778" gradientUnits="userSpaceOnUse">
<stop stop-color="#FFBF00"/>
<stop offset="1" stop-color="#F2A50C"/>
</linearGradient>
</defs>
</svg>
