<svg width="18" height="14" viewBox="0 0 18 14" fill="none" xmlns="http://www.w3.org/2000/svg">
<path d="M15.668 0.333008H2.33397C1.41797 0.333008 0.675969 1.08301 0.675969 2.00001L0.667969 12C0.667969 12.917 1.41797 13.667 2.33397 13.667H15.668C16.584 13.667 17.334 12.917 17.334 12V2.00001C17.334 1.08301 16.584 0.333008 15.668 0.333008ZM15.334 3.87501L9.44297 7.55901C9.31006 7.64084 9.15705 7.68417 9.00097 7.68417C8.84489 7.68417 8.69187 7.64084 8.55897 7.55901L2.66797 3.87501C2.58557 3.82751 2.51359 3.76391 2.45632 3.68798C2.39904 3.61206 2.35765 3.52537 2.33462 3.4331C2.31158 3.34083 2.30737 3.24486 2.32224 3.15093C2.3371 3.057 2.37074 2.96702 2.42115 2.88637C2.47155 2.80572 2.53769 2.73606 2.61561 2.68153C2.69353 2.627 2.78164 2.58874 2.87468 2.56901C2.96771 2.54928 3.06377 2.5485 3.15711 2.56671C3.25045 2.58492 3.33917 2.62176 3.41797 2.67501L9.00097 6.16701L14.584 2.67501C14.6628 2.62176 14.7515 2.58492 14.8448 2.56671C14.9382 2.5485 15.0342 2.54928 15.1273 2.56901C15.2203 2.58874 15.3084 2.627 15.3863 2.68153C15.4642 2.73606 15.5304 2.80572 15.5808 2.88637C15.6312 2.96702 15.6648 3.057 15.6797 3.15093C15.6946 3.24486 15.6904 3.34083 15.6673 3.4331C15.6443 3.52537 15.6029 3.61206 15.5456 3.68798C15.4883 3.76391 15.4164 3.82751 15.334 3.87501Z" fill="url(#paint0_linear_12_575)"/>
<defs>
<linearGradient id="paint0_linear_12_575" x1="9.00097" y1="0.333008" x2="9.00097" y2="13.667" gradientUnits="userSpaceOnUse">
<stop stop-color="#FFBF00"/>
<stop offset="1" stop-color="#F2A50C"/>
</linearGradient>
</defs>
</svg>
