<svg width="24" height="24" viewBox="0 0 24 24" fill="none" xmlns="http://www.w3.org/2000/svg">
<path d="M19.4599 9.99976C19.3613 10.1455 19.3029 10.3148 19.2906 10.4904C19.2783 10.6659 19.3126 10.8417 19.3899 10.9998C19.6379 11.5788 19.8129 12.1868 19.9099 12.8098C20.1674 14.4199 19.9266 16.0703 19.2199 17.5398C19.1341 17.7009 19.0058 17.8355 18.8489 17.929C18.692 18.0224 18.5125 18.0711 18.3299 18.0698H5.67994C5.49631 18.0701 5.31613 18.02 5.15913 17.9247C5.00214 17.8294 4.87441 17.6928 4.78994 17.5298C4.14982 16.2312 3.87408 14.7833 3.99213 13.3403C4.11017 11.8974 4.61756 10.5135 5.46022 9.33626C6.30288 8.159 7.44922 7.23247 8.77702 6.65545C10.1048 6.07843 11.5643 5.87255 12.9999 6.05976C13.7263 6.14514 14.4368 6.3337 15.1099 6.61976C15.268 6.69713 15.4438 6.7314 15.6193 6.71911C15.7949 6.70682 15.9642 6.6484 16.1099 6.54976C16.2618 6.4497 16.3835 6.31012 16.462 6.14603C16.5404 5.98195 16.5727 5.79958 16.5552 5.61854C16.5377 5.43751 16.4712 5.26468 16.3628 5.11864C16.2543 4.9726 16.1082 4.8589 15.9399 4.78976C14.0081 3.96142 11.8644 3.76285 9.81335 4.22226C7.76226 4.68167 5.90808 5.7757 4.5142 7.34894C3.12031 8.92218 2.25759 10.8946 2.04859 12.9861C1.83959 15.0776 2.29493 17.1818 3.34994 18.9998C3.52445 19.302 3.77503 19.5534 4.07677 19.7288C4.37852 19.9042 4.72092 19.9977 5.06994 19.9998H18.9199C19.2724 20.0012 19.6189 19.9094 19.9244 19.7338C20.23 19.5582 20.4837 19.305 20.6599 18.9998C21.4323 17.6612 21.884 16.1618 21.9794 14.6194C22.0748 13.0769 21.8114 11.5333 21.2099 10.1098C21.1338 9.94752 21.0154 9.80874 20.8672 9.70793C20.719 9.60713 20.5464 9.54802 20.3675 9.53677C20.1886 9.52553 20.01 9.56257 19.8503 9.64402C19.6907 9.72547 19.5558 9.84834 19.4599 9.99976Z" fill="url(#paint0_linear_12_276)"/>
<path d="M10.59 12.5897C10.2147 12.965 10.0039 13.474 10.0039 14.0047C10.0039 14.2675 10.0557 14.5277 10.1562 14.7705C10.2568 15.0133 10.4042 15.2339 10.59 15.4197C10.7758 15.6055 10.9964 15.7529 11.2392 15.8535C11.482 15.954 11.7422 16.0058 12.005 16.0058C12.5357 16.0058 13.0447 15.795 13.42 15.4197L19.08 6.92969L10.59 12.5897V12.5897Z" fill="url(#paint1_linear_12_276)"/>
<defs>
<linearGradient id="paint0_linear_12_276" x1="11.9987" y1="3.98047" x2="11.9987" y2="19.9998" gradientUnits="userSpaceOnUse">
<stop stop-color="#FFBF00"/>
<stop offset="1" stop-color="#F2A50C"/>
</linearGradient>
<linearGradient id="paint1_linear_12_276" x1="14.542" y1="6.92969" x2="14.542" y2="16.0058" gradientUnits="userSpaceOnUse">
<stop stop-color="#FFBF00"/>
<stop offset="1" stop-color="#F2A50C"/>
</linearGradient>
</defs>
</svg>
