<svg width="12" height="10" viewBox="0 0 12 10" fill="none" xmlns="http://www.w3.org/2000/svg">
<path d="M11.667 1.66698C11.667 0.933984 11.067 0.333984 10.334 0.333984H9.00101C8.63401 0.333984 8.33401 0.633984 8.33401 0.999984C8.33401 1.36698 8.63401 1.66698 9.00101 1.66698H10.334V3.43398L8.01401 6.33398H5.66701V3.66698C5.66701 3.29998 5.36701 2.99998 5.00101 2.99998H3.00001C2.64974 2.99985 2.30287 3.06875 1.97924 3.20273C1.6556 3.33671 1.36154 3.53316 1.11386 3.78084C0.866181 4.02852 0.669736 4.32258 0.535754 4.64621C0.401771 4.96985 0.332877 5.31671 0.333008 5.66698V6.99998C0.333008 7.36698 0.633008 7.66698 1.00001 7.66698H1.66601C1.66601 8.77398 2.56001 9.66698 3.66601 9.66698C4.77301 9.66698 5.66601 8.77398 5.66601 7.66698H8.01301C8.42001 7.66698 8.80001 7.47998 9.05301 7.16698L11.373 4.26698C11.566 4.02698 11.666 3.73298 11.666 3.43398V1.66698H11.667ZM3.66701 8.33398C3.49044 8.33319 3.32135 8.26263 3.1966 8.13769C3.07184 8.01275 3.00153 7.84355 3.00101 7.66698H4.33401C4.33401 8.03398 4.03401 8.33398 3.66701 8.33398Z" fill="#9C9C9C"/>
</svg>
