<svg width="20" height="18" viewBox="0 0 20 18" fill="none" xmlns="http://www.w3.org/2000/svg">
<path d="M15 13.9902C13.65 13.9902 12.8 14.4102 12.05 14.7902C11.4 15.1202 10.87 15.3902 10 15.3902C9.1 15.3902 8.6 15.1402 7.95 14.7902C7.2 14.4102 6.38 13.9902 5 13.9902C3.62 13.9902 2.8 14.4102 2.05 14.7902C1.62 15.0102 1.24 15.2002 0.78 15.3102C0.33 15.4102 0 15.7702 0 16.2202V16.3202C0 16.9202 0.56 17.3502 1.14 17.2302C1.88 17.0802 2.44 16.8002 2.95 16.5402C3.6 16.2102 4.12 15.9402 5 15.9402C5.88 15.9402 6.4 16.1902 7.05 16.5402C7.8 16.9202 8.62 17.3402 10 17.3402C11.38 17.3402 12.2 16.9202 12.95 16.5402C13.6 16.2102 14.13 15.9402 15 15.9402C15.9 15.9402 16.4 16.1902 17.05 16.5402C17.57 16.8002 18.13 17.0902 18.88 17.2402C19.0151 17.2665 19.1543 17.2629 19.2879 17.2295C19.4214 17.1962 19.546 17.1339 19.6528 17.0471C19.7597 16.9603 19.8461 16.8511 19.9061 16.7272C19.9661 16.6033 19.9982 16.4678 20 16.3302V16.2402C20 15.7802 19.66 15.4202 19.21 15.3202C18.75 15.2202 18.38 15.0302 17.95 14.8002C17.2 14.4102 16.35 13.9902 15 13.9902ZM15 9.54016C13.65 9.54016 12.8 9.97016 12.05 10.3402C11.4 10.6602 10.87 10.9402 10 10.9402C9.1 10.9402 8.6 10.6902 7.95 10.3402C7.2 9.96016 6.38 9.54016 5 9.54016C3.62 9.54016 2.8 9.97016 2.05 10.3402C1.62 10.5502 1.24 10.7502 0.77 10.8602C0.33 10.9602 0 11.3202 0 11.7702V11.8702C5.71478e-05 12.0084 0.0309224 12.1448 0.0903506 12.2696C0.149779 12.3944 0.236275 12.5044 0.343549 12.5916C0.450822 12.6787 0.576174 12.7409 0.710487 12.7735C0.8448 12.8061 0.984697 12.8084 1.12 12.7802C1.87 12.6302 2.43 12.3402 2.95 12.0902C3.6 11.7402 4.1 11.4902 5 11.4902C5.9 11.4902 6.4 11.7402 7.05 12.0902C7.8 12.4702 8.62 12.8902 10 12.8902C11.38 12.8902 12.2 12.4602 12.95 12.0902C13.6 11.7402 14.1 11.4902 15 11.4902C15.9 11.4902 16.4 11.7402 17.05 12.0902C17.57 12.3502 18.13 12.6402 18.88 12.7902C19.0159 12.8167 19.156 12.8128 19.2903 12.7789C19.4245 12.745 19.5497 12.6818 19.6567 12.5939C19.7637 12.506 19.8499 12.3956 19.9093 12.2704C19.9686 12.1453 19.9996 12.0086 20 11.8702V11.7802C20 11.3202 19.66 10.9602 19.21 10.8602C18.75 10.7602 18.38 10.5702 17.95 10.3402C17.2 9.96016 16.35 9.54016 15 9.54016ZM17.95 1.46016C17.2 1.08016 16.37 0.660156 15 0.660156C13.63 0.660156 12.8 1.08016 12.05 1.46016C11.4 1.78016 10.87 2.06016 10 2.06016C9.1 2.06016 8.6 1.81016 7.95 1.46016C7.2 1.09016 6.38 0.660156 5 0.660156C3.62 0.660156 2.8 1.08016 2.05 1.46016C1.62 1.68016 1.24 1.87016 0.78 1.98016C0.33 2.08016 0 2.44016 0 2.89016V2.96016C0 3.56016 0.54 4.00016 1.12 3.88016C1.87 3.73016 2.43 3.44016 2.95 3.19016C3.6 2.86016 4.12 2.59016 5 2.59016C5.88 2.59016 6.4 2.84016 7.05 3.19016C7.8 3.57016 8.62 3.99016 10 3.99016C11.38 3.99016 12.2 3.56016 12.95 3.19016C13.6 2.87016 14.13 2.59016 15 2.59016C15.9 2.59016 16.4 2.84016 17.05 3.19016C17.57 3.45016 18.13 3.74016 18.88 3.89016C19.0159 3.91667 19.156 3.91283 19.2903 3.87891C19.4245 3.84498 19.5497 3.78181 19.6567 3.69391C19.7637 3.60601 19.8499 3.49556 19.9093 3.37044C19.9686 3.24532 19.9996 3.10864 20 2.97016V2.88016C20 2.42016 19.66 2.06016 19.21 1.96016C18.75 1.86016 18.38 1.68016 17.95 1.46016ZM15 5.09016C13.65 5.09016 12.8 5.52016 12.05 5.89016C11.4 6.24016 10.9 6.49016 10 6.49016C9.1 6.49016 8.6 6.24016 7.95 5.89016C7.2 5.51016 6.38 5.09016 5 5.09016C3.62 5.09016 2.8 5.52016 2.05 5.89016C1.62 6.12016 1.25 6.31016 0.79 6.41016C0.34 6.51016 0 6.87016 0 7.33016V7.42016C5.71478e-05 7.55837 0.0309224 7.69484 0.0903506 7.81963C0.149779 7.94442 0.236275 8.0544 0.343549 8.14156C0.450822 8.22872 0.576174 8.29087 0.710487 8.32349C0.8448 8.35612 0.984697 8.35839 1.12 8.33016C1.87 8.18016 2.43 7.89016 2.95 7.64016C3.6 7.32016 4.13 7.04016 5 7.04016C5.87 7.04016 6.4 7.29016 7.05 7.64016C7.8 8.02016 8.62 8.44016 10 8.44016C11.38 8.44016 12.2 8.01016 12.95 7.64016C13.6 7.32016 14.13 7.04016 15 7.04016C15.9 7.04016 16.4 7.29016 17.05 7.64016C17.57 7.90016 18.13 8.19016 18.88 8.34016C19.0151 8.36653 19.1543 8.36291 19.2879 8.32955C19.4214 8.29619 19.546 8.23391 19.6528 8.14711C19.7597 8.06032 19.8461 7.95111 19.9061 7.82723C19.9661 7.70334 19.9982 7.56779 20 7.43016V7.34016C20 6.88016 19.66 6.52016 19.21 6.42016C18.75 6.32016 18.38 6.13016 17.95 5.90016C17.2 5.51016 16.35 5.09016 15 5.09016Z" fill="url(#paint0_linear_12_273)"/>
<defs>
<linearGradient id="paint0_linear_12_273" x1="10" y1="0.660156" x2="10" y2="17.3402" gradientUnits="userSpaceOnUse">
<stop stop-color="#FFBF00"/>
<stop offset="1" stop-color="#F2A50C"/>
</linearGradient>
</defs>
</svg>
