<svg width="12" height="9" viewBox="0 0 12 9" fill="none" xmlns="http://www.w3.org/2000/svg">
<path d="M1.00001 0H3.00001C3.36701 0 3.66701 0.3 3.66701 0.667C3.66701 1.033 3.36701 1.333 3.00101 1.333H1.00001C0.823443 1.33247 0.654246 1.26217 0.529302 1.13741C0.404357 1.01266 0.333799 0.843563 0.333008 0.667C0.333008 0.3 0.633008 0 1.00001 0ZM9.66801 4.666C8.56101 4.666 7.66801 5.56 7.66801 6.666C7.66801 7.773 8.56101 8.666 9.66801 8.666C10.775 8.666 11.668 7.773 11.668 6.666C11.668 5.56 10.775 4.666 9.66801 4.666ZM9.66801 7.333C9.49127 7.33247 9.32192 7.26203 9.19695 7.13706C9.07198 7.01208 9.00154 6.84274 9.00101 6.666C9.00101 6.3 9.30101 6 9.66801 6C10.035 6 10.335 6.3 10.335 6.666C10.335 7.033 10.035 7.333 9.66801 7.333Z" fill="#9C9C9C"/>
</svg>
